<svg width="30" height="31" viewBox="0 0 30 31" fill="none" xmlns="http://www.w3.org/2000/svg">
<path d="M17.7484 15.0234L29.4298 3.34142C30.1901 2.58156 30.1901 1.35296 29.4298 0.593092C28.67 -0.166773 27.4414 -0.166773 26.6816 0.593092L14.9998 12.2751L3.31843 0.593092C2.55822 -0.166773 1.33 -0.166773 0.570154 0.593092C-0.190051 1.35296 -0.190051 2.58156 0.570154 3.34142L12.2516 15.0234L0.570154 26.7054C-0.190051 27.4653 -0.190051 28.6939 0.570154 29.4537C0.948833 29.8328 1.44674 30.0232 1.94429 30.0232C2.44184 30.0232 2.93939 29.8328 3.31843 29.4537L14.9998 17.7717L26.6816 29.4537C27.0606 29.8328 27.5582 30.0232 28.0557 30.0232C28.5533 30.0232 29.0508 29.8328 29.4298 29.4537C30.1901 28.6939 30.1901 27.4653 29.4298 26.7054L17.7484 15.0234Z" fill="white"/>
</svg>
