<svg width="33" height="32" viewBox="0 0 33 32" fill="none" xmlns="http://www.w3.org/2000/svg">
<path d="M16.0612 0C19.2365 0 22.3405 0.938383 24.9806 2.69649C27.6207 4.45459 29.6785 6.95345 30.8936 9.87707C32.1087 12.8007 32.4266 16.0177 31.8072 19.1214C31.1877 22.2251 29.6587 25.0761 27.4134 27.3137C25.1682 29.5513 22.3075 31.0752 19.1933 31.6926C16.079 32.3099 12.851 31.9931 9.91747 30.7821C6.9839 29.5711 4.47655 27.5203 2.71246 24.8891C0.948381 22.2579 0.00680538 19.1645 0.00680542 16H4.82313C4.82313 18.2152 5.48224 20.3806 6.71709 22.2224C7.95195 24.0642 9.7071 25.4997 11.7606 26.3475C13.8141 27.1952 16.0737 27.4169 18.2537 26.9848C20.4336 26.5526 22.4361 25.4859 24.0078 23.9196C25.5794 22.3532 26.6498 20.3576 27.0834 18.185C27.517 16.0124 27.2945 13.7605 26.4439 11.7139C25.5933 9.66741 24.1529 7.91821 22.3048 6.68754C20.4567 5.45687 18.2839 4.8 16.0612 4.8L16.0612 0Z" fill="#E4ADB1"/>
</svg>
