<svg width="37" height="36" viewBox="0 0 37 36" fill="none" xmlns="http://www.w3.org/2000/svg">
<path d="M36.1224 18C36.1224 21.5601 35.0632 25.0402 33.0786 28.0003C31.094 30.9603 28.2732 33.2675 24.973 34.6298C21.6727 35.9922 18.0412 36.3487 14.5377 35.6541C11.0341 34.9596 7.81592 33.2453 5.29001 30.7279C2.7641 28.2106 1.04394 25.0033 0.347041 21.5116C-0.349855 18.02 0.00781755 14.4008 1.37483 11.1117C2.74184 7.82263 5.05679 5.01141 8.02695 3.03355C10.9971 1.05568 14.4891 -4.24533e-08 18.0612 0V9.43031C16.3605 9.43031 14.698 9.93291 13.284 10.8746C11.8699 11.8162 10.7678 13.1546 10.1169 14.7205C9.46611 16.2864 9.29582 18.0095 9.62761 19.6719C9.9594 21.3342 10.7784 22.8612 11.9809 24.0597C13.1835 25.2582 14.7157 26.0744 16.3837 26.405C18.0517 26.7357 19.7806 26.566 21.3519 25.9174C22.9231 25.2687 24.266 24.1703 25.2109 22.7611C26.1558 21.3518 26.6601 19.6949 26.6601 18H36.1224Z" fill="#D73844"/>
</svg>
