<svg width="52" height="52" viewBox="0 0 52 52" fill="none" xmlns="http://www.w3.org/2000/svg">
<path d="M26 0L47.4825 9.88162H50.375C50.806 9.88162 51.2193 10.0523 51.524 10.3561C51.8288 10.6599 52 11.0719 52 11.5016V17.9813C52 18.4109 51.8288 18.823 51.524 19.1268C51.2193 19.4306 50.806 19.6012 50.375 19.6012H48.75V42.2804C49.1125 42.2805 49.4645 42.4014 49.7501 42.6239C50.0357 42.8464 50.2385 43.1577 50.3262 43.5083L51.9512 49.988C52.011 50.2268 52.0154 50.476 51.9641 50.7167C51.9128 50.9574 51.8072 51.1832 51.6552 51.3772C51.5033 51.5711 51.3091 51.728 51.0872 51.8359C50.8654 51.9438 50.6218 51.9999 50.375 52H1.625C1.37817 51.9999 1.13459 51.9438 0.912764 51.8359C0.690936 51.728 0.496684 51.5711 0.344753 51.3772C0.192822 51.1832 0.0872037 50.9574 0.0359153 50.7167C-0.015373 50.476 -0.0109838 50.2268 0.04875 49.988L1.67375 43.5083C1.76147 43.1577 1.96426 42.8464 2.24987 42.6239C2.53549 42.4014 2.88752 42.2805 3.25 42.2804V19.6012H1.625C1.19402 19.6012 0.780698 19.4306 0.475952 19.1268C0.171205 18.823 0 18.4109 0 17.9813V11.5016C0 11.0719 0.171205 10.6599 0.475952 10.3561C0.780698 10.0523 1.19402 9.88162 1.625 9.88162H4.5175L26 0ZM12.272 9.88162H39.7247L26 3.56386L12.272 9.88162ZM6.5 19.6012V42.2804H9.75V19.6012H6.5ZM13 19.6012V42.2804H21.125V19.6012H13ZM24.375 19.6012V42.2804H27.625V19.6012H24.375ZM30.875 19.6012V42.2804H39V19.6012H30.875ZM42.25 19.6012V42.2804H45.5V19.6012H42.25ZM48.75 16.3614V13.1215H3.25V16.3614H48.75ZM47.4825 45.5203H4.5175L3.705 48.7601H48.295L47.4825 45.5203Z" fill="white"/>
</svg>
