<svg width="118" height="93" viewBox="0 0 118 93" fill="none" xmlns="http://www.w3.org/2000/svg">
<path d="M2.27627 4.10674C0.954679 4.50645 0.207344 5.90184 0.607049 7.22343C1.00675 8.54502 2.40214 9.29235 3.72373 8.89265L2.27627 4.10674ZM90.5041 88.3576C90.4253 89.736 91.4789 90.9174 92.8574 90.9961L115.321 92.2797C116.699 92.3585 117.881 91.3048 117.959 89.9264C118.038 88.5479 116.984 87.3666 115.606 87.2878L95.6386 86.1469L96.7795 66.1795C96.8583 64.801 95.8047 63.6197 94.4262 63.5409C93.0477 63.4621 91.8664 64.5158 91.7876 65.8942L90.5041 88.3576ZM3 6.49969C3.72373 8.89265 3.72298 8.89287 3.72238 8.89305C3.72238 8.89305 3.72194 8.89319 3.72195 8.89318C3.72197 8.89318 3.72261 8.89298 3.72387 8.89261C3.72637 8.89186 3.73133 8.89038 3.73873 8.88819C3.75353 8.88381 3.77808 8.8766 3.81223 8.86673C3.88054 8.84699 3.98725 8.81662 4.13123 8.77701C4.41921 8.69777 4.85616 8.5816 5.43291 8.43963C6.58656 8.15566 8.29866 7.76869 10.496 7.36766C14.8921 6.56536 21.2214 5.70845 28.9002 5.50509C44.2634 5.09822 64.9672 7.30812 86.4055 17.7477L88.5945 13.2524C66.257 2.37488 44.7108 0.0846162 28.7679 0.506842C20.7937 0.718028 14.206 1.60799 9.59829 2.44891C7.29374 2.8695 5.48227 3.27823 4.23782 3.58456C3.61552 3.73774 3.13479 3.86537 2.80484 3.95615C2.63986 4.00154 2.51256 4.03772 2.42409 4.06329C2.37985 4.07608 2.34532 4.08621 2.32063 4.09351C2.30829 4.09716 2.29841 4.1001 2.29101 4.10231C2.28731 4.10342 2.28423 4.10435 2.28177 4.10508C2.28055 4.10545 2.27917 4.10587 2.27855 4.10605C2.27733 4.10642 2.27627 4.10674 3 6.49969ZM86.4055 17.7477C97.0495 22.9309 103.598 28.8441 107.297 34.8846C110.977 40.8949 111.951 47.2182 111.125 53.4794C109.451 66.1626 100.367 78.5794 91.336 86.6345L94.664 90.3659C104.133 81.9209 114.187 68.4961 116.082 54.1335C117.04 46.8719 115.907 39.3712 111.561 32.2736C107.234 25.2063 99.8385 18.7277 88.5945 13.2524L86.4055 17.7477Z" fill="black"/>
</svg>
