<svg width="52" height="43" viewBox="0 0 52 43" fill="none" xmlns="http://www.w3.org/2000/svg">
<path d="M27.625 5.87749C29.7505 3.61657 33.4165 2.97013 37.739 3.40984C41.7495 3.81674 45.8738 5.12604 48.75 6.34017V38.9019C45.7665 37.7534 41.9023 36.6312 38.0673 36.244C34.5118 35.8797 30.6638 36.116 27.625 37.8584V5.87749ZM26 2.91106C22.7987 0.13168 18.1578 -0.281781 13.9328 0.144806C9.01225 0.646867 4.04625 2.34994 0.95225 3.7708C0.668359 3.90117 0.42762 4.11126 0.258768 4.37601C0.0899167 4.64075 8.63571e-05 4.94897 0 5.26386L0 41.3597C7.52765e-05 41.6343 0.0683707 41.9044 0.198631 42.1453C0.32889 42.3863 0.516951 42.5904 0.745585 42.739C0.97422 42.8875 1.23612 42.9758 1.5073 42.9957C1.77847 43.0156 2.05025 42.9664 2.29775 42.8528C5.16425 41.5402 9.7825 39.9618 14.2578 39.5057C18.837 39.0398 22.6753 39.7912 24.7325 42.3835C24.8848 42.5752 25.0777 42.7298 25.2971 42.8361C25.5165 42.9424 25.7567 42.9975 26 42.9975C26.2433 42.9975 26.4835 42.9424 26.7029 42.8361C26.9223 42.7298 27.1152 42.5752 27.2675 42.3835C29.3248 39.7912 33.163 39.0398 37.739 39.5057C42.2175 39.9618 46.839 41.5402 49.7023 42.8528C49.9497 42.9664 50.2215 43.0156 50.4927 42.9957C50.7639 42.9758 51.0258 42.8875 51.2544 42.739C51.483 42.5904 51.6711 42.3863 51.8014 42.1453C51.9316 41.9044 51.9999 41.6343 52 41.3597V5.26386C51.9999 4.94897 51.9101 4.64075 51.7412 4.37601C51.5724 4.11126 51.3316 3.90117 51.0477 3.7708C47.9537 2.34994 42.9878 0.646867 38.0673 0.144806C33.8423 -0.285063 29.2013 0.13168 26 2.91106Z" fill="white"/>
</svg>
