<svg width="52" height="42" viewBox="0 0 52 42" fill="none" xmlns="http://www.w3.org/2000/svg">
<path d="M21.4904 0C20.2127 0 18.9874 0.507536 18.084 1.41096C17.1806 2.31438 16.673 3.53968 16.673 4.81731V6.42308H5.43266C4.15503 6.42308 2.92973 6.93061 2.02631 7.83403C1.12289 8.73745 0.615356 9.96276 0.615356 11.2404L0.615356 15.6852L25.068 22.2046C25.8803 22.4209 26.735 22.4209 27.5473 22.2046L52 15.6852V11.2404C52 9.96276 51.4924 8.73745 50.589 7.83403C49.6856 6.93061 48.4603 6.42308 47.1827 6.42308H35.9423V4.81731C35.9423 3.53968 35.4347 2.31438 34.5313 1.41096C33.6279 0.507536 32.4026 0 31.125 0H21.4904ZM21.4904 3.21154H31.125C31.5508 3.21154 31.9593 3.38072 32.2604 3.68186C32.5616 3.983 32.7307 4.39143 32.7307 4.81731V6.42308H19.8846V4.81731C19.8846 4.39143 20.0538 3.983 20.3549 3.68186C20.656 3.38072 21.0645 3.21154 21.4904 3.21154Z" fill="white"/>
<path d="M0.615356 36.9327C0.615356 38.2103 1.12289 39.4356 2.02631 40.339C2.92973 41.2424 4.15503 41.75 5.43266 41.75H47.1827C48.4603 41.75 49.6856 41.2424 50.589 40.339C51.4924 39.4356 52 38.2103 52 36.9327V18.7875L26.722 25.5221C26.4505 25.5946 26.1648 25.5946 25.8934 25.5221L0.615356 18.7875V36.9327Z" fill="white"/>
</svg>
