<svg width="30" height="30" viewBox="0 0 30 30" fill="none" xmlns="http://www.w3.org/2000/svg">
<path d="M30 15C30 17.9667 29.1203 20.8668 27.472 23.3336C25.8238 25.8003 23.4811 27.7229 20.7403 28.8582C17.9994 29.9935 14.9834 30.2906 12.0736 29.7118C9.16393 29.133 6.49119 27.7044 4.3934 25.6066C2.29561 23.5088 0.866999 20.8361 0.288221 17.9264C-0.290558 15.0166 0.00649254 12.0006 1.14181 9.25975C2.27712 6.51886 4.19971 4.17618 6.66645 2.52796C9.13318 0.879735 12.0333 -3.53778e-08 15 0V9C13.8133 9 12.6533 9.35189 11.6666 10.0112C10.6799 10.6705 9.91085 11.6075 9.45672 12.7039C9.0026 13.8003 8.88378 15.0067 9.11529 16.1705C9.3468 17.3344 9.91824 18.4035 10.7574 19.2426C11.5965 20.0818 12.6656 20.6532 13.8295 20.8847C14.9933 21.1162 16.1997 20.9974 17.2961 20.5433C18.3925 20.0892 19.3295 19.3201 19.9888 18.3334C20.6481 17.3467 21 16.1867 21 15H30Z" fill="#E4ADB1"/>
</svg>
